# xmcd CD database file
#
# Track frame offsets:
#	150
#	23489
#	49840
#	66146
#	96835
#	124539
#	151565
#	162129
#	188561
#	219283
#	244490
#	266653
#
# Disc length: 3784 seconds
#
# Revision: 3
# Processed by: cddbd v1.5.2PL0 Copyright (c) Steve Scherf et al.
# Submitted via: CDex 1.70beta2
#
DISCID=930ec60c
DTITLE=Various Artist - Piano Jazz
DYEAR=2008
DGENRE=Jazz
TTITLE0=Kumagai Yasumasa - Carbonara
TTITLE1=Ishida Mamoru Trio - Diminished Waltz
TTITLE2=Quartetto Moderno - Love Theme From Spartacus
TTITLE3=Matsushita Michiyo Trio - Tuning Point
TTITLE4=Venom Meets Marco Di Marco - Winding Dance (Celestial Re Edit)
TTITLE5=Kumagai Yasumasa - Peace Out
TTITLE6=Max Rocci and His Friends - Danger
TTITLE7=Kei Akagi Trio - The Children Play
TTITLE8=West Rock Woods - Moonlight Shadow
TTITLE9=Venom Meets Marco Di Marco - Par Avion (Impressions Re Edit)
TTITLE10=West Rock Woods - Each And Everyone
TTITLE11=Intuit - A Hard Nitgt's Day (Reprice)
EXTD=YEAR: 2008
EXTT0=
EXTT1=
EXTT2=
EXTT3=
EXTT4=
EXTT5=
EXTT6=
EXTT7=
EXTT8=
EXTT9=
EXTT10=
EXTT11=
PLAYORDER=
